<svg xmlns="http://www.w3.org/2000/svg" viewBox="0 0 64 64" role="img" aria-labelledby="title desc">
  <title>Seth Berroa favicon</title>
  <desc>Monogram favicon with SB initials</desc>
  <defs>
    <linearGradient id="g" x1="0" x2="1" y1="0" y2="1">
      <stop offset="0%" stop-color="#8b5cf6" />
      <stop offset="100%" stop-color="#3b82f6" />
    </linearGradient>
  </defs>
  <rect width="64" height="64" rx="18" fill="#08111d" />
  <rect x="5" y="5" width="54" height="54" rx="15" fill="url(#g)" opacity="0.18" />
  <circle cx="32" cy="32" r="21" fill="url(#g)" />
  <path fill="#fff" d="M24.2 21.5h8.9c5 0 8.3 2.8 8.3 6.8 0 2.7-1.5 4.7-4 5.6 3 1 4.8 3.2 4.8 6.2 0 4.6-3.6 7.4-9.1 7.4h-9V21.5Zm8.2 10c2 0 3.2-1 3.2-2.8 0-1.7-1.2-2.7-3.2-2.7h-2.8v5.5h2.8Zm.4 11.5c2.6 0 4-1.1 4-3.2 0-2-1.5-3.1-4.1-3.1h-3.1V43h3.2Zm-14.5-21h5.2v23.7h-5.2V21.5Z"/>
</svg>